<?xml version="1.0" encoding="UTF-8" standalone="no"?><svg xmlns="http://www.w3.org/2000/svg" xmlns:xlink="http://www.w3.org/1999/xlink" contentStyleType="text/css" height="777px" preserveAspectRatio="none" style="width:747px;height:777px;background:#FFFFFF;" version="1.1" viewBox="0 0 747 777" width="747px" zoomAndPan="magnify"><defs/><g><!--MD5=[c5704167acbf019772631f78b4a3f577]
class ImportedCar--><g id="elem_ImportedCar"><rect codeLine="1" fill="#F1F1F1" height="80.5938" id="ImportedCar" rx="2.5" ry="2.5" style="stroke:#181818;stroke-width:0.5;" width="156" x="7" y="690"/><ellipse cx="39.55" cy="706" fill="#ADD1B2" rx="11" ry="11" style="stroke:#181818;stroke-width:1.0;"/><path d="M42.5188,711.6406 Q41.9406,711.9375 41.3,712.0781 Q40.6594,712.2344 39.9563,712.2344 Q37.4563,712.2344 36.1281,710.5938 Q34.8156,708.9375 34.8156,705.8125 Q34.8156,702.6875 36.1281,701.0313 Q37.4563,699.375 39.9563,699.375 Q40.6594,699.375 41.3,699.5313 Q41.9563,699.6875 42.5188,699.9844 L42.5188,702.7031 Q41.8938,702.125 41.3,701.8594 Q40.7063,701.5781 40.0813,701.5781 Q38.7375,701.5781 38.05,702.6563 Q37.3625,703.7188 37.3625,705.8125 Q37.3625,707.9063 38.05,708.9844 Q38.7375,710.0469 40.0813,710.0469 Q40.7063,710.0469 41.3,709.7813 Q41.8938,709.5 42.5188,708.9219 L42.5188,711.6406 Z " fill="#000000"/><text fill="#000000" font-family="sans-serif" font-size="14" lengthAdjust="spacing" textLength="85" x="57.45" y="710.8467">ImportedCar</text><line style="stroke:#181818;stroke-width:0.5;" x1="8" x2="162" y1="722" y2="722"/><ellipse cx="18" cy="733" fill="none" rx="3" ry="3" style="stroke:#038048;stroke-width:1.0;"/><text fill="#000000" font-family="sans-serif" font-size="14" lengthAdjust="spacing" textLength="108" x="27" y="738.9951">importedOn: int</text><ellipse cx="18" cy="749.2969" fill="none" rx="3" ry="3" style="stroke:#038048;stroke-width:1.0;"/><text fill="#000000" font-family="sans-serif" font-size="14" lengthAdjust="spacing" textLength="130" x="27" y="755.292">originalCountry: str</text><line style="stroke:#181818;stroke-width:0.5;" x1="8" x2="162" y1="762.5938" y2="762.5938"/></g><!--MD5=[3f0ef310aaa84a542276992c5216544d]
class Car--><g id="elem_Car"><rect codeLine="18" fill="#F1F1F1" height="194.6719" id="Car" rx="2.5" ry="2.5" style="stroke:#181818;stroke-width:0.5;" width="183" x="179.5" y="435"/><ellipse cx="255.25" cy="451" fill="#A9DCDF" rx="11" ry="11" style="stroke:#181818;stroke-width:1.0;"/><path d="M255.3594,446.3438 L254.2031,451.4219 L256.5313,451.4219 L255.3594,446.3438 Z M253.875,444.1094 L256.8594,444.1094 L260.2188,456.5 L257.7656,456.5 L257,453.4375 L253.7188,453.4375 L252.9688,456.5 L250.5313,456.5 L253.875,444.1094 Z " fill="#000000"/><text fill="#000000" font-family="sans-serif" font-size="14" font-style="italic" lengthAdjust="spacing" textLength="23" x="275.75" y="455.8467">Car</text><line style="stroke:#181818;stroke-width:0.5;" x1="180.5" x2="361.5" y1="467" y2="467"/><ellipse cx="190.5" cy="478" fill="none" rx="3" ry="3" style="stroke:#038048;stroke-width:1.0;"/><text fill="#000000" font-family="sans-serif" font-size="14" lengthAdjust="spacing" textLength="108" x="199.5" y="483.9951">releaseYear: int</text><ellipse cx="190.5" cy="494.2969" fill="none" rx="3" ry="3" style="stroke:#038048;stroke-width:1.0;"/><text fill="#000000" font-family="sans-serif" font-size="14" lengthAdjust="spacing" textLength="70" x="199.5" y="500.292">model: str</text><ellipse cx="190.5" cy="510.5938" fill="none" rx="3" ry="3" style="stroke:#038048;stroke-width:1.0;"/><text fill="#000000" font-family="sans-serif" font-size="14" lengthAdjust="spacing" textLength="67" x="199.5" y="516.5889">brand: str</text><ellipse cx="190.5" cy="526.8906" fill="none" rx="3" ry="3" style="stroke:#038048;stroke-width:1.0;"/><text fill="#000000" font-family="sans-serif" font-size="14" lengthAdjust="spacing" textLength="61" x="199.5" y="532.8857">body: str</text><ellipse cx="190.5" cy="543.1875" fill="none" rx="3" ry="3" style="stroke:#038048;stroke-width:1.0;"/><text fill="#000000" font-family="sans-serif" font-size="14" lengthAdjust="spacing" textLength="115" x="199.5" y="549.1826">priceHistory: dict</text><ellipse cx="190.5" cy="559.4844" fill="none" rx="3" ry="3" style="stroke:#038048;stroke-width:1.0;"/><text fill="#000000" font-family="sans-serif" font-size="14" lengthAdjust="spacing" textLength="127" x="199.5" y="565.4795">internals: Internals</text><line style="stroke:#181818;stroke-width:0.5;" x1="180.5" x2="361.5" y1="572.7813" y2="572.7813"/><ellipse cx="190.5" cy="583.7813" fill="#84BE84" rx="3" ry="3" style="stroke:#038048;stroke-width:1.0;"/><text fill="#000000" font-family="sans-serif" font-size="14" lengthAdjust="spacing" textLength="62" x="199.5" y="589.7764">Car(json)</text><ellipse cx="190.5" cy="600.0781" fill="#84BE84" rx="3" ry="3" style="stroke:#038048;stroke-width:1.0;"/><text fill="#000000" font-family="sans-serif" font-size="14" lengthAdjust="spacing" textLength="157" x="199.5" y="606.0732">short_description(): str</text><ellipse cx="190.5" cy="616.375" fill="#84BE84" rx="3" ry="3" style="stroke:#038048;stroke-width:1.0;"/><text fill="#000000" font-family="sans-serif" font-size="14" lengthAdjust="spacing" textLength="151" x="199.5" y="622.3701">long_description(): str</text></g><!--MD5=[7a0eed1079a82bed8f497436f55a7c8f]
class UsedCar--><g id="elem_UsedCar"><rect codeLine="6" fill="#F1F1F1" height="80.5938" id="UsedCar" rx="2.5" ry="2.5" style="stroke:#181818;stroke-width:0.5;" width="145" x="198.5" y="690"/><ellipse cx="237.8" cy="706" fill="#ADD1B2" rx="11" ry="11" style="stroke:#181818;stroke-width:1.0;"/><path d="M240.7688,711.6406 Q240.1906,711.9375 239.55,712.0781 Q238.9094,712.2344 238.2063,712.2344 Q235.7063,712.2344 234.3781,710.5938 Q233.0656,708.9375 233.0656,705.8125 Q233.0656,702.6875 234.3781,701.0313 Q235.7063,699.375 238.2063,699.375 Q238.9094,699.375 239.55,699.5313 Q240.2063,699.6875 240.7688,699.9844 L240.7688,702.7031 Q240.1438,702.125 239.55,701.8594 Q238.9563,701.5781 238.3313,701.5781 Q236.9875,701.5781 236.3,702.6563 Q235.6125,703.7188 235.6125,705.8125 Q235.6125,707.9063 236.3,708.9844 Q236.9875,710.0469 238.3313,710.0469 Q238.9563,710.0469 239.55,709.7813 Q240.1438,709.5 240.7688,708.9219 L240.7688,711.6406 Z " fill="#000000"/><text fill="#000000" font-family="sans-serif" font-size="14" lengthAdjust="spacing" textLength="59" x="257.2" y="710.8467">UsedCar</text><line style="stroke:#181818;stroke-width:0.5;" x1="199.5" x2="342.5" y1="722" y2="722"/><ellipse cx="209.5" cy="733" fill="none" rx="3" ry="3" style="stroke:#038048;stroke-width:1.0;"/><text fill="#000000" font-family="sans-serif" font-size="14" lengthAdjust="spacing" textLength="92" x="218.5" y="738.9951">mileage: float</text><ellipse cx="209.5" cy="749.2969" fill="none" rx="3" ry="3" style="stroke:#038048;stroke-width:1.0;"/><text fill="#000000" font-family="sans-serif" font-size="14" lengthAdjust="spacing" textLength="119" x="218.5" y="755.292">modifications: list</text><line style="stroke:#181818;stroke-width:0.5;" x1="199.5" x2="342.5" y1="762.5938" y2="762.5938"/></g><!--MD5=[95fe4de01cf4fc25cdf967517f5c0caa]
class NewCar--><g id="elem_NewCar"><rect codeLine="11" fill="#F1F1F1" height="64.2969" id="NewCar" rx="2.5" ry="2.5" style="stroke:#181818;stroke-width:0.5;" width="158" x="379" y="698.5"/><ellipse cx="427.25" cy="714.5" fill="#ADD1B2" rx="11" ry="11" style="stroke:#181818;stroke-width:1.0;"/><path d="M430.2188,720.1406 Q429.6406,720.4375 429,720.5781 Q428.3594,720.7344 427.6563,720.7344 Q425.1563,720.7344 423.8281,719.0938 Q422.5156,717.4375 422.5156,714.3125 Q422.5156,711.1875 423.8281,709.5313 Q425.1563,707.875 427.6563,707.875 Q428.3594,707.875 429,708.0313 Q429.6563,708.1875 430.2188,708.4844 L430.2188,711.2031 Q429.5938,710.625 429,710.3594 Q428.4063,710.0781 427.7813,710.0781 Q426.4375,710.0781 425.75,711.1563 Q425.0625,712.2188 425.0625,714.3125 Q425.0625,716.4063 425.75,717.4844 Q426.4375,718.5469 427.7813,718.5469 Q428.4063,718.5469 429,718.2813 Q429.5938,718 430.2188,717.4219 L430.2188,720.1406 Z " fill="#000000"/><text fill="#000000" font-family="sans-serif" font-size="14" lengthAdjust="spacing" textLength="53" x="447.75" y="719.3467">NewCar</text><line style="stroke:#181818;stroke-width:0.5;" x1="380" x2="536" y1="730.5" y2="730.5"/><ellipse cx="390" cy="741.5" fill="none" rx="3" ry="3" style="stroke:#038048;stroke-width:1.0;"/><text fill="#000000" font-family="sans-serif" font-size="14" lengthAdjust="spacing" textLength="132" x="399" y="747.4951">concessionaire: str</text><line style="stroke:#181818;stroke-width:0.5;" x1="380" x2="536" y1="754.7969" y2="754.7969"/></g><!--MD5=[c86ce95fe6226f2d2796c0513d8e83fe]
class Engine--><g id="elem_Engine"><rect codeLine="43" fill="#F1F1F1" height="145.7813" id="Engine" rx="2.5" ry="2.5" style="stroke:#181818;stroke-width:0.5;" width="151" x="195.5" y="7"/><ellipse cx="242.75" cy="23" fill="#ADD1B2" rx="11" ry="11" style="stroke:#181818;stroke-width:1.0;"/><path d="M245.7188,28.6406 Q245.1406,28.9375 244.5,29.0781 Q243.8594,29.2344 243.1563,29.2344 Q240.6563,29.2344 239.3281,27.5938 Q238.0156,25.9375 238.0156,22.8125 Q238.0156,19.6875 239.3281,18.0313 Q240.6563,16.375 243.1563,16.375 Q243.8594,16.375 244.5,16.5313 Q245.1563,16.6875 245.7188,16.9844 L245.7188,19.7031 Q245.0938,19.125 244.5,18.8594 Q243.9063,18.5781 243.2813,18.5781 Q241.9375,18.5781 241.25,19.6563 Q240.5625,20.7188 240.5625,22.8125 Q240.5625,24.9063 241.25,25.9844 Q241.9375,27.0469 243.2813,27.0469 Q243.9063,27.0469 244.5,26.7813 Q245.0938,26.5 245.7188,25.9219 L245.7188,28.6406 Z " fill="#000000"/><text fill="#000000" font-family="sans-serif" font-size="14" lengthAdjust="spacing" textLength="48" x="263.25" y="27.8467">Engine</text><line style="stroke:#181818;stroke-width:0.5;" x1="196.5" x2="345.5" y1="39" y2="39"/><ellipse cx="206.5" cy="50" fill="none" rx="3" ry="3" style="stroke:#038048;stroke-width:1.0;"/><text fill="#000000" font-family="sans-serif" font-size="14" lengthAdjust="spacing" textLength="66" x="215.5" y="55.9951">size: float</text><ellipse cx="206.5" cy="66.2969" fill="none" rx="3" ry="3" style="stroke:#038048;stroke-width:1.0;"/><text fill="#000000" font-family="sans-serif" font-size="14" lengthAdjust="spacing" textLength="87" x="215.5" y="72.292">cylinders: int</text><ellipse cx="206.5" cy="82.5938" fill="none" rx="3" ry="3" style="stroke:#038048;stroke-width:1.0;"/><text fill="#000000" font-family="sans-serif" font-size="14" lengthAdjust="spacing" textLength="125" x="215.5" y="88.5889">inductionType: str</text><ellipse cx="206.5" cy="98.8906" fill="none" rx="3" ry="3" style="stroke:#038048;stroke-width:1.0;"/><text fill="#000000" font-family="sans-serif" font-size="14" lengthAdjust="spacing" textLength="109" x="215.5" y="104.8857">horsePower: int</text><ellipse cx="206.5" cy="115.1875" fill="none" rx="3" ry="3" style="stroke:#038048;stroke-width:1.0;"/><text fill="#000000" font-family="sans-serif" font-size="14" lengthAdjust="spacing" textLength="72" x="215.5" y="121.1826">torque: int</text><line style="stroke:#181818;stroke-width:0.5;" x1="196.5" x2="345.5" y1="128.4844" y2="128.4844"/><ellipse cx="206.5" cy="139.4844" fill="#84BE84" rx="3" ry="3" style="stroke:#038048;stroke-width:1.0;"/><text fill="#000000" font-family="sans-serif" font-size="14" lengthAdjust="spacing" textLength="87" x="215.5" y="145.4795">Engine(json)</text></g><!--MD5=[a5e4776f1672aa0c62a54f0a77939200]
class Internals--><g id="elem_Internals"><rect codeLine="32" fill="#F1F1F1" height="162.0781" id="Internals" rx="2.5" ry="2.5" style="stroke:#181818;stroke-width:0.5;" width="182" x="180" y="213"/><ellipse cx="237.25" cy="229" fill="#ADD1B2" rx="11" ry="11" style="stroke:#181818;stroke-width:1.0;"/><path d="M240.2188,234.6406 Q239.6406,234.9375 239,235.0781 Q238.3594,235.2344 237.6563,235.2344 Q235.1563,235.2344 233.8281,233.5938 Q232.5156,231.9375 232.5156,228.8125 Q232.5156,225.6875 233.8281,224.0313 Q235.1563,222.375 237.6563,222.375 Q238.3594,222.375 239,222.5313 Q239.6563,222.6875 240.2188,222.9844 L240.2188,225.7031 Q239.5938,225.125 239,224.8594 Q238.4063,224.5781 237.7813,224.5781 Q236.4375,224.5781 235.75,225.6563 Q235.0625,226.7188 235.0625,228.8125 Q235.0625,230.9063 235.75,231.9844 Q236.4375,233.0469 237.7813,233.0469 Q238.4063,233.0469 239,232.7813 Q239.5938,232.5 240.2188,231.9219 L240.2188,234.6406 Z " fill="#000000"/><text fill="#000000" font-family="sans-serif" font-size="14" lengthAdjust="spacing" textLength="59" x="257.75" y="233.8467">Internals</text><line style="stroke:#181818;stroke-width:0.5;" x1="181" x2="361" y1="245" y2="245"/><ellipse cx="191" cy="256" fill="none" rx="3" ry="3" style="stroke:#038048;stroke-width:1.0;"/><text fill="#000000" font-family="sans-serif" font-size="14" lengthAdjust="spacing" textLength="105" x="200" y="261.9951">engine: Engine</text><ellipse cx="191" cy="272.2969" fill="none" rx="3" ry="3" style="stroke:#038048;stroke-width:1.0;"/><text fill="#000000" font-family="sans-serif" font-size="14" lengthAdjust="spacing" textLength="115" x="200" y="278.292">transmission: str</text><ellipse cx="191" cy="288.5938" fill="none" rx="3" ry="3" style="stroke:#038048;stroke-width:1.0;"/><text fill="#000000" font-family="sans-serif" font-size="14" lengthAdjust="spacing" textLength="68" x="200" y="294.5889">4wb: bool</text><ellipse cx="191" cy="304.8906" fill="none" rx="3" ry="3" style="stroke:#038048;stroke-width:1.0;"/><text fill="#000000" font-family="sans-serif" font-size="14" lengthAdjust="spacing" textLength="104" x="200" y="310.8857">powerTrain: str</text><ellipse cx="191" cy="321.1875" fill="none" rx="3" ry="3" style="stroke:#038048;stroke-width:1.0;"/><text fill="#000000" font-family="sans-serif" font-size="14" lengthAdjust="spacing" textLength="86" x="200" y="327.1826">fuelType: str</text><ellipse cx="191" cy="337.4844" fill="none" rx="3" ry="3" style="stroke:#038048;stroke-width:1.0;"/><text fill="#000000" font-family="sans-serif" font-size="14" lengthAdjust="spacing" textLength="156" x="200" y="343.4795">fuelConsumption: float</text><line style="stroke:#181818;stroke-width:0.5;" x1="181" x2="361" y1="350.7813" y2="350.7813"/><ellipse cx="191" cy="361.7813" fill="#84BE84" rx="3" ry="3" style="stroke:#038048;stroke-width:1.0;"/><text fill="#000000" font-family="sans-serif" font-size="14" lengthAdjust="spacing" textLength="98" x="200" y="367.7764">Internals(json)</text></g><!--MD5=[0b4e4b4980470ea387cc45de9bd14b5b]
class Application--><g id="elem_Application"><rect codeLine="53" fill="#F1F1F1" height="129.4844" id="Application" rx="2.5" ry="2.5" style="stroke:#181818;stroke-width:0.5;" width="359" x="381.5" y="15.5"/><ellipse cx="519.25" cy="31.5" fill="#A9DCDF" rx="11" ry="11" style="stroke:#181818;stroke-width:1.0;"/><path d="M519.3594,26.8438 L518.2031,31.9219 L520.5313,31.9219 L519.3594,26.8438 Z M517.875,24.6094 L520.8594,24.6094 L524.2188,37 L521.7656,37 L521,33.9375 L517.7188,33.9375 L516.9688,37 L514.5313,37 L517.875,24.6094 Z " fill="#000000"/><text fill="#000000" font-family="sans-serif" font-size="14" font-style="italic" lengthAdjust="spacing" textLength="75" x="539.75" y="36.3467">Application</text><line style="stroke:#181818;stroke-width:0.5;" x1="382.5" x2="739.5" y1="47.5" y2="47.5"/><ellipse cx="392.5" cy="58.5" fill="none" rx="3" ry="3" style="stroke:#038048;stroke-width:1.0;"/><text fill="#000000" font-family="sans-serif" font-size="14" lengthAdjust="spacing" textLength="78" x="401.5" y="64.4951">window: Tk</text><line style="stroke:#181818;stroke-width:0.5;" x1="382.5" x2="739.5" y1="71.7969" y2="71.7969"/><ellipse cx="392.5" cy="82.7969" fill="#84BE84" rx="3" ry="3" style="stroke:#038048;stroke-width:1.0;"/><text fill="#000000" font-family="sans-serif" font-size="14" lengthAdjust="spacing" textLength="333" x="401.5" y="88.792">Application(title: str, iconPath: str, geometry: str)</text><ellipse cx="392.5" cy="99.0938" fill="#84BE84" rx="3" ry="3" style="stroke:#038048;stroke-width:1.0;"/><text fill="#000000" font-family="sans-serif" font-size="14" lengthAdjust="spacing" textLength="33" x="401.5" y="105.0889">run()</text><ellipse cx="392.5" cy="115.3906" fill="#84BE84" rx="3" ry="3" style="stroke:#038048;stroke-width:1.0;"/><text fill="#000000" font-family="sans-serif" font-size="14" lengthAdjust="spacing" textLength="77" x="401.5" y="121.3857">onstartup()</text><ellipse cx="392.5" cy="131.6875" fill="#84BE84" rx="3" ry="3" style="stroke:#038048;stroke-width:1.0;"/><text fill="#000000" font-family="sans-serif" font-size="14" lengthAdjust="spacing" textLength="79" x="401.5" y="137.6826">onclosure()</text></g><!--MD5=[335f4d9be48430461c68bf6d6fdba145]
class App--><g id="elem_App"><rect codeLine="62" fill="#F1F1F1" height="129.4844" id="App" rx="2.5" ry="2.5" style="stroke:#181818;stroke-width:0.5;" width="170" x="476" y="229.5"/><ellipse cx="543.25" cy="245.5" fill="#ADD1B2" rx="11" ry="11" style="stroke:#181818;stroke-width:1.0;"/><path d="M546.2188,251.1406 Q545.6406,251.4375 545,251.5781 Q544.3594,251.7344 543.6563,251.7344 Q541.1563,251.7344 539.8281,250.0938 Q538.5156,248.4375 538.5156,245.3125 Q538.5156,242.1875 539.8281,240.5313 Q541.1563,238.875 543.6563,238.875 Q544.3594,238.875 545,239.0313 Q545.6563,239.1875 546.2188,239.4844 L546.2188,242.2031 Q545.5938,241.625 545,241.3594 Q544.4063,241.0781 543.7813,241.0781 Q542.4375,241.0781 541.75,242.1563 Q541.0625,243.2188 541.0625,245.3125 Q541.0625,247.4063 541.75,248.4844 Q542.4375,249.5469 543.7813,249.5469 Q544.4063,249.5469 545,249.2813 Q545.5938,249 546.2188,248.4219 L546.2188,251.1406 Z " fill="#000000"/><text fill="#000000" font-family="sans-serif" font-size="14" lengthAdjust="spacing" textLength="27" x="563.75" y="250.3467">App</text><line style="stroke:#181818;stroke-width:0.5;" x1="477" x2="645" y1="261.5" y2="261.5"/><ellipse cx="487" cy="272.5" fill="none" rx="3" ry="3" style="stroke:#038048;stroke-width:1.0;"/><text fill="#000000" font-family="sans-serif" font-size="14" lengthAdjust="spacing" textLength="57" x="496" y="278.4951">cars: list</text><ellipse cx="487" cy="288.7969" fill="none" rx="3" ry="3" style="stroke:#038048;stroke-width:1.0;"/><text fill="#000000" font-family="sans-serif" font-size="14" lengthAdjust="spacing" textLength="64" x="496" y="294.792">info: Text</text><line style="stroke:#181818;stroke-width:0.5;" x1="477" x2="645" y1="302.0938" y2="302.0938"/><ellipse cx="487" cy="313.0938" fill="#84BE84" rx="3" ry="3" style="stroke:#038048;stroke-width:1.0;"/><text fill="#000000" font-family="sans-serif" font-size="14" lengthAdjust="spacing" textLength="37" x="496" y="319.0889">App()</text><ellipse cx="487" cy="329.3906" fill="#84BE84" rx="3" ry="3" style="stroke:#038048;stroke-width:1.0;"/><text fill="#000000" font-family="sans-serif" font-size="14" lengthAdjust="spacing" textLength="91" x="496" y="335.3857">onselect(evt)</text><ellipse cx="487" cy="345.6875" fill="#84BE84" rx="3" ry="3" style="stroke:#038048;stroke-width:1.0;"/><text fill="#000000" font-family="sans-serif" font-size="14" lengthAdjust="spacing" textLength="144" x="496" y="351.6826">showPriceGraph(car)</text></g><!--MD5=[f3228c0ada97ee6175d805a1b6b02414]
reverse link Car to ImportedCar--><g id="link_Car_ImportedCar"><path d="M165.34,644.84 C150.16,660.84 135.44,676.35 122.84,689.63 " fill="none" id="Car-backto-ImportedCar" style="stroke:#181818;stroke-width:1.0;"/><polygon fill="none" points="160.52,639.75,179.36,630.06,170.67,649.39,160.52,639.75" style="stroke:#181818;stroke-width:1.0;"/></g><!--MD5=[6ce7b2c68ef164980dfa2246f636ebfc]
reverse link Car to UsedCar--><g id="link_Car_UsedCar"><path d="M271,650.21 C271,664.29 271,677.84 271,689.63 " fill="none" id="Car-backto-UsedCar" style="stroke:#181818;stroke-width:1.0;"/><polygon fill="none" points="264,650.06,271,630.06,278,650.06,264,650.06" style="stroke:#181818;stroke-width:1.0;"/></g><!--MD5=[38fb7c403527af1bfd9c857c1507ce69]
reverse link Car to NewCar--><g id="link_Car_NewCar"><path d="M376.44,644.01 C395.36,663.85 413.63,682.99 428.06,698.12 " fill="none" id="Car-backto-NewCar" style="stroke:#181818;stroke-width:1.0;"/><polygon fill="none" points="371.32,648.79,362.58,629.49,381.45,639.13,371.32,648.79" style="stroke:#181818;stroke-width:1.0;"/></g><!--MD5=[1b5d5b7871bf76f88eeac3cf8bb5811e]
reverse link Engine to Internals--><g id="link_Engine_Internals"><path codeLine="15" d="M271,166.35 C271,181.67 271,197.59 271,212.76 " fill="none" id="Engine-backto-Internals" style="stroke:#181818;stroke-width:1.0;"/><polygon fill="#181818" points="271,153.07,267,159.07,271,165.07,275,159.07,271,153.07" style="stroke:#181818;stroke-width:1.0;"/></g><!--MD5=[cbdfd84fc1e8727875ca979ab618d84a]
reverse link Internals to Car--><g id="link_Internals_Car"><path codeLine="16" d="M271,388.3 C271,403.55 271,419.38 271,434.72 " fill="none" id="Internals-backto-Car" style="stroke:#181818;stroke-width:1.0;"/><polygon fill="#181818" points="271,375.07,267,381.07,271,387.07,275,381.07,271,375.07" style="stroke:#181818;stroke-width:1.0;"/></g><!--MD5=[356e9c1a442df0b7daa2eabe011cda3f]
reverse link Application to App--><g id="link_Application_App"><path d="M561,164.74 C561,186.28 561,209.11 561,229.44 " fill="none" id="Application-backto-App" style="stroke:#181818;stroke-width:1.0;"/><polygon fill="none" points="554,164.61,561,144.61,568,164.61,554,164.61" style="stroke:#181818;stroke-width:1.0;"/></g><!--MD5=[a3b392fbfe48900b2259f2ea6a9f91e5]
@startuml
class ImportedCar extends Car {
    +importedOn: int
    +originalCountry: str
}

class UsedCar extends Car {
    +mileage: float
    +modifications: list
}

class NewCar extends Car {
    +concessionaire: str
}

Engine *- - Internals
Internals *- - Car

abstract class Car {
    +Car(json)

    +releaseYear: int
    +model: str
    +brand: str
    +body: str
    +priceHistory: dict
    +internals: Internals

    +short_description(): str
    +long_description(): str
}

class Internals {
    +Internals(json)

    +engine: Engine
    +transmission: str
    +4wb: bool
    +powerTrain: str
    +fuelType: str
    +fuelConsumption: float
}

class Engine {
    +Engine(json)

    +size: float
    +cylinders: int
    +inductionType: str
    +horsePower: int
    +torque: int
}

abstract class Application {
    +Application(title: str, iconPath: str, geometry: str)
    +window: Tk

    +run()
    +onstartup()
    +onclosure()
}

class App extends Application {
    +App()

    +cars: list
    +info: Text

    +onselect(evt)
    +showPriceGraph(car)
}
@enduml

PlantUML version 1.2022.4(Sat Apr 09 13:29:17 UTC 2022)
(GPL source distribution)
Java Runtime: OpenJDK Runtime Environment
JVM: OpenJDK 64-Bit Server VM
Default Encoding: UTF-8
Language: en
Country: US
--></g></svg>