<?xml version="1.0" encoding="UTF-8" standalone="no"?><svg xmlns="http://www.w3.org/2000/svg" xmlns:xlink="http://www.w3.org/1999/xlink" contentStyleType="text/css" height="777px" preserveAspectRatio="none" style="width:770px;height:777px;background:#FFFFFF;" version="1.1" viewBox="0 0 770 777" width="770px" zoomAndPan="magnify"><defs/><g><!--MD5=[c5704167acbf019772631f78b4a3f577]
class ImportedCar--><g id="elem_ImportedCar"><rect codeLine="1" fill="#F1F1F1" height="80.5938" id="ImportedCar" rx="2.5" ry="2.5" style="stroke:#181818;stroke-width:0.5;" width="156" x="7" y="690"/><ellipse cx="39.55" cy="706" fill="#ADD1B2" rx="11" ry="11" style="stroke:#181818;stroke-width:1.0;"/><path d="M42.5188,711.6406 Q41.9406,711.9375 41.3,712.0781 Q40.6594,712.2344 39.9563,712.2344 Q37.4563,712.2344 36.1281,710.5938 Q34.8156,708.9375 34.8156,705.8125 Q34.8156,702.6875 36.1281,701.0313 Q37.4563,699.375 39.9563,699.375 Q40.6594,699.375 41.3,699.5313 Q41.9563,699.6875 42.5188,699.9844 L42.5188,702.7031 Q41.8938,702.125 41.3,701.8594 Q40.7063,701.5781 40.0813,701.5781 Q38.7375,701.5781 38.05,702.6563 Q37.3625,703.7188 37.3625,705.8125 Q37.3625,707.9063 38.05,708.9844 Q38.7375,710.0469 40.0813,710.0469 Q40.7063,710.0469 41.3,709.7813 Q41.8938,709.5 42.5188,708.9219 L42.5188,711.6406 Z " fill="#000000"/><text fill="#000000" font-family="sans-serif" font-size="14" lengthAdjust="spacing" textLength="85" x="57.45" y="710.8467">ImportedCar</text><line style="stroke:#181818;stroke-width:0.5;" x1="8" x2="162" y1="722" y2="722"/><ellipse cx="18" cy="733" fill="none" rx="3" ry="3" style="stroke:#038048;stroke-width:1.0;"/><text fill="#000000" font-family="sans-serif" font-size="14" lengthAdjust="spacing" textLength="108" x="27" y="738.9951">importedOn: int</text><ellipse cx="18" cy="749.2969" fill="none" rx="3" ry="3" style="stroke:#038048;stroke-width:1.0;"/><text fill="#000000" font-family="sans-serif" font-size="14" lengthAdjust="spacing" textLength="130" x="27" y="755.292">originalCountry: str</text><line style="stroke:#181818;stroke-width:0.5;" x1="8" x2="162" y1="762.5938" y2="762.5938"/></g><!--MD5=[3f0ef310aaa84a542276992c5216544d]
class Car--><g id="elem_Car"><rect codeLine="18" fill="#F1F1F1" height="194.6719" id="Car" rx="2.5" ry="2.5" style="stroke:#181818;stroke-width:0.5;" width="258" x="165" y="435"/><ellipse cx="278.25" cy="451" fill="#A9DCDF" rx="11" ry="11" style="stroke:#181818;stroke-width:1.0;"/><path d="M278.3594,446.3438 L277.2031,451.4219 L279.5313,451.4219 L278.3594,446.3438 Z M276.875,444.1094 L279.8594,444.1094 L283.2188,456.5 L280.7656,456.5 L280,453.4375 L276.7188,453.4375 L275.9688,456.5 L273.5313,456.5 L276.875,444.1094 Z " fill="#000000"/><text fill="#000000" font-family="sans-serif" font-size="14" font-style="italic" lengthAdjust="spacing" textLength="23" x="298.75" y="455.8467">Car</text><line style="stroke:#181818;stroke-width:0.5;" x1="166" x2="422" y1="467" y2="467"/><ellipse cx="176" cy="478" fill="none" rx="3" ry="3" style="stroke:#038048;stroke-width:1.0;"/><text fill="#000000" font-family="sans-serif" font-size="14" lengthAdjust="spacing" textLength="108" x="185" y="483.9951">releaseYear: int</text><ellipse cx="176" cy="494.2969" fill="none" rx="3" ry="3" style="stroke:#038048;stroke-width:1.0;"/><text fill="#000000" font-family="sans-serif" font-size="14" lengthAdjust="spacing" textLength="70" x="185" y="500.292">model: str</text><ellipse cx="176" cy="510.5938" fill="none" rx="3" ry="3" style="stroke:#038048;stroke-width:1.0;"/><text fill="#000000" font-family="sans-serif" font-size="14" lengthAdjust="spacing" textLength="67" x="185" y="516.5889">brand: str</text><ellipse cx="176" cy="526.8906" fill="none" rx="3" ry="3" style="stroke:#038048;stroke-width:1.0;"/><text fill="#000000" font-family="sans-serif" font-size="14" lengthAdjust="spacing" textLength="61" x="185" y="532.8857">body: str</text><ellipse cx="176" cy="543.1875" fill="none" rx="3" ry="3" style="stroke:#038048;stroke-width:1.0;"/><text fill="#000000" font-family="sans-serif" font-size="14" lengthAdjust="spacing" textLength="232" x="185" y="549.1826">priceHistory: Dictionary&lt;int,float&gt;</text><ellipse cx="176" cy="559.4844" fill="none" rx="3" ry="3" style="stroke:#038048;stroke-width:1.0;"/><text fill="#000000" font-family="sans-serif" font-size="14" lengthAdjust="spacing" textLength="127" x="185" y="565.4795">internals: Internals</text><line style="stroke:#181818;stroke-width:0.5;" x1="166" x2="422" y1="572.7813" y2="572.7813"/><ellipse cx="176" cy="583.7813" fill="#84BE84" rx="3" ry="3" style="stroke:#038048;stroke-width:1.0;"/><text fill="#000000" font-family="sans-serif" font-size="14" lengthAdjust="spacing" textLength="62" x="185" y="589.7764">Car(json)</text><ellipse cx="176" cy="600.0781" fill="#84BE84" rx="3" ry="3" style="stroke:#038048;stroke-width:1.0;"/><text fill="#000000" font-family="sans-serif" font-size="14" lengthAdjust="spacing" textLength="157" x="185" y="606.0732">short_description(): str</text><ellipse cx="176" cy="616.375" fill="#84BE84" rx="3" ry="3" style="stroke:#038048;stroke-width:1.0;"/><text fill="#000000" font-family="sans-serif" font-size="14" lengthAdjust="spacing" textLength="151" x="185" y="622.3701">long_description(): str</text></g><!--MD5=[7a0eed1079a82bed8f497436f55a7c8f]
class UsedCar--><g id="elem_UsedCar"><rect codeLine="6" fill="#F1F1F1" height="80.5938" id="UsedCar" rx="2.5" ry="2.5" style="stroke:#181818;stroke-width:0.5;" width="191" x="198.5" y="690"/><ellipse cx="260.25" cy="706" fill="#ADD1B2" rx="11" ry="11" style="stroke:#181818;stroke-width:1.0;"/><path d="M263.2188,711.6406 Q262.6406,711.9375 262,712.0781 Q261.3594,712.2344 260.6563,712.2344 Q258.1563,712.2344 256.8281,710.5938 Q255.5156,708.9375 255.5156,705.8125 Q255.5156,702.6875 256.8281,701.0313 Q258.1563,699.375 260.6563,699.375 Q261.3594,699.375 262,699.5313 Q262.6563,699.6875 263.2188,699.9844 L263.2188,702.7031 Q262.5938,702.125 262,701.8594 Q261.4063,701.5781 260.7813,701.5781 Q259.4375,701.5781 258.75,702.6563 Q258.0625,703.7188 258.0625,705.8125 Q258.0625,707.9063 258.75,708.9844 Q259.4375,710.0469 260.7813,710.0469 Q261.4063,710.0469 262,709.7813 Q262.5938,709.5 263.2188,708.9219 L263.2188,711.6406 Z " fill="#000000"/><text fill="#000000" font-family="sans-serif" font-size="14" lengthAdjust="spacing" textLength="59" x="280.75" y="710.8467">UsedCar</text><line style="stroke:#181818;stroke-width:0.5;" x1="199.5" x2="388.5" y1="722" y2="722"/><ellipse cx="209.5" cy="733" fill="none" rx="3" ry="3" style="stroke:#038048;stroke-width:1.0;"/><text fill="#000000" font-family="sans-serif" font-size="14" lengthAdjust="spacing" textLength="92" x="218.5" y="738.9951">mileage: float</text><ellipse cx="209.5" cy="749.2969" fill="none" rx="3" ry="3" style="stroke:#038048;stroke-width:1.0;"/><text fill="#000000" font-family="sans-serif" font-size="14" lengthAdjust="spacing" textLength="165" x="218.5" y="755.292">modifications: List&lt;str&gt;</text><line style="stroke:#181818;stroke-width:0.5;" x1="199.5" x2="388.5" y1="762.5938" y2="762.5938"/></g><!--MD5=[95fe4de01cf4fc25cdf967517f5c0caa]
class NewCar--><g id="elem_NewCar"><rect codeLine="11" fill="#F1F1F1" height="64.2969" id="NewCar" rx="2.5" ry="2.5" style="stroke:#181818;stroke-width:0.5;" width="158" x="425" y="698.5"/><ellipse cx="473.25" cy="714.5" fill="#ADD1B2" rx="11" ry="11" style="stroke:#181818;stroke-width:1.0;"/><path d="M476.2188,720.1406 Q475.6406,720.4375 475,720.5781 Q474.3594,720.7344 473.6563,720.7344 Q471.1563,720.7344 469.8281,719.0938 Q468.5156,717.4375 468.5156,714.3125 Q468.5156,711.1875 469.8281,709.5313 Q471.1563,707.875 473.6563,707.875 Q474.3594,707.875 475,708.0313 Q475.6563,708.1875 476.2188,708.4844 L476.2188,711.2031 Q475.5938,710.625 475,710.3594 Q474.4063,710.0781 473.7813,710.0781 Q472.4375,710.0781 471.75,711.1563 Q471.0625,712.2188 471.0625,714.3125 Q471.0625,716.4063 471.75,717.4844 Q472.4375,718.5469 473.7813,718.5469 Q474.4063,718.5469 475,718.2813 Q475.5938,718 476.2188,717.4219 L476.2188,720.1406 Z " fill="#000000"/><text fill="#000000" font-family="sans-serif" font-size="14" lengthAdjust="spacing" textLength="53" x="493.75" y="719.3467">NewCar</text><line style="stroke:#181818;stroke-width:0.5;" x1="426" x2="582" y1="730.5" y2="730.5"/><ellipse cx="436" cy="741.5" fill="none" rx="3" ry="3" style="stroke:#038048;stroke-width:1.0;"/><text fill="#000000" font-family="sans-serif" font-size="14" lengthAdjust="spacing" textLength="132" x="445" y="747.4951">concessionaire: str</text><line style="stroke:#181818;stroke-width:0.5;" x1="426" x2="582" y1="754.7969" y2="754.7969"/></g><!--MD5=[c86ce95fe6226f2d2796c0513d8e83fe]
class Engine--><g id="elem_Engine"><rect codeLine="43" fill="#F1F1F1" height="145.7813" id="Engine" rx="2.5" ry="2.5" style="stroke:#181818;stroke-width:0.5;" width="151" x="218.5" y="7"/><ellipse cx="265.75" cy="23" fill="#ADD1B2" rx="11" ry="11" style="stroke:#181818;stroke-width:1.0;"/><path d="M268.7188,28.6406 Q268.1406,28.9375 267.5,29.0781 Q266.8594,29.2344 266.1563,29.2344 Q263.6563,29.2344 262.3281,27.5938 Q261.0156,25.9375 261.0156,22.8125 Q261.0156,19.6875 262.3281,18.0313 Q263.6563,16.375 266.1563,16.375 Q266.8594,16.375 267.5,16.5313 Q268.1563,16.6875 268.7188,16.9844 L268.7188,19.7031 Q268.0938,19.125 267.5,18.8594 Q266.9063,18.5781 266.2813,18.5781 Q264.9375,18.5781 264.25,19.6563 Q263.5625,20.7188 263.5625,22.8125 Q263.5625,24.9063 264.25,25.9844 Q264.9375,27.0469 266.2813,27.0469 Q266.9063,27.0469 267.5,26.7813 Q268.0938,26.5 268.7188,25.9219 L268.7188,28.6406 Z " fill="#000000"/><text fill="#000000" font-family="sans-serif" font-size="14" lengthAdjust="spacing" textLength="48" x="286.25" y="27.8467">Engine</text><line style="stroke:#181818;stroke-width:0.5;" x1="219.5" x2="368.5" y1="39" y2="39"/><ellipse cx="229.5" cy="50" fill="none" rx="3" ry="3" style="stroke:#038048;stroke-width:1.0;"/><text fill="#000000" font-family="sans-serif" font-size="14" lengthAdjust="spacing" textLength="66" x="238.5" y="55.9951">size: float</text><ellipse cx="229.5" cy="66.2969" fill="none" rx="3" ry="3" style="stroke:#038048;stroke-width:1.0;"/><text fill="#000000" font-family="sans-serif" font-size="14" lengthAdjust="spacing" textLength="87" x="238.5" y="72.292">cylinders: int</text><ellipse cx="229.5" cy="82.5938" fill="none" rx="3" ry="3" style="stroke:#038048;stroke-width:1.0;"/><text fill="#000000" font-family="sans-serif" font-size="14" lengthAdjust="spacing" textLength="125" x="238.5" y="88.5889">inductionType: str</text><ellipse cx="229.5" cy="98.8906" fill="none" rx="3" ry="3" style="stroke:#038048;stroke-width:1.0;"/><text fill="#000000" font-family="sans-serif" font-size="14" lengthAdjust="spacing" textLength="109" x="238.5" y="104.8857">horsePower: int</text><ellipse cx="229.5" cy="115.1875" fill="none" rx="3" ry="3" style="stroke:#038048;stroke-width:1.0;"/><text fill="#000000" font-family="sans-serif" font-size="14" lengthAdjust="spacing" textLength="72" x="238.5" y="121.1826">torque: int</text><line style="stroke:#181818;stroke-width:0.5;" x1="219.5" x2="368.5" y1="128.4844" y2="128.4844"/><ellipse cx="229.5" cy="139.4844" fill="#84BE84" rx="3" ry="3" style="stroke:#038048;stroke-width:1.0;"/><text fill="#000000" font-family="sans-serif" font-size="14" lengthAdjust="spacing" textLength="87" x="238.5" y="145.4795">Engine(json)</text></g><!--MD5=[a5e4776f1672aa0c62a54f0a77939200]
class Internals--><g id="elem_Internals"><rect codeLine="32" fill="#F1F1F1" height="162.0781" id="Internals" rx="2.5" ry="2.5" style="stroke:#181818;stroke-width:0.5;" width="182" x="203" y="213"/><ellipse cx="260.25" cy="229" fill="#ADD1B2" rx="11" ry="11" style="stroke:#181818;stroke-width:1.0;"/><path d="M263.2188,234.6406 Q262.6406,234.9375 262,235.0781 Q261.3594,235.2344 260.6563,235.2344 Q258.1563,235.2344 256.8281,233.5938 Q255.5156,231.9375 255.5156,228.8125 Q255.5156,225.6875 256.8281,224.0313 Q258.1563,222.375 260.6563,222.375 Q261.3594,222.375 262,222.5313 Q262.6563,222.6875 263.2188,222.9844 L263.2188,225.7031 Q262.5938,225.125 262,224.8594 Q261.4063,224.5781 260.7813,224.5781 Q259.4375,224.5781 258.75,225.6563 Q258.0625,226.7188 258.0625,228.8125 Q258.0625,230.9063 258.75,231.9844 Q259.4375,233.0469 260.7813,233.0469 Q261.4063,233.0469 262,232.7813 Q262.5938,232.5 263.2188,231.9219 L263.2188,234.6406 Z " fill="#000000"/><text fill="#000000" font-family="sans-serif" font-size="14" lengthAdjust="spacing" textLength="59" x="280.75" y="233.8467">Internals</text><line style="stroke:#181818;stroke-width:0.5;" x1="204" x2="384" y1="245" y2="245"/><ellipse cx="214" cy="256" fill="none" rx="3" ry="3" style="stroke:#038048;stroke-width:1.0;"/><text fill="#000000" font-family="sans-serif" font-size="14" lengthAdjust="spacing" textLength="105" x="223" y="261.9951">engine: Engine</text><ellipse cx="214" cy="272.2969" fill="none" rx="3" ry="3" style="stroke:#038048;stroke-width:1.0;"/><text fill="#000000" font-family="sans-serif" font-size="14" lengthAdjust="spacing" textLength="115" x="223" y="278.292">transmission: str</text><ellipse cx="214" cy="288.5938" fill="none" rx="3" ry="3" style="stroke:#038048;stroke-width:1.0;"/><text fill="#000000" font-family="sans-serif" font-size="14" lengthAdjust="spacing" textLength="68" x="223" y="294.5889">4wb: bool</text><ellipse cx="214" cy="304.8906" fill="none" rx="3" ry="3" style="stroke:#038048;stroke-width:1.0;"/><text fill="#000000" font-family="sans-serif" font-size="14" lengthAdjust="spacing" textLength="104" x="223" y="310.8857">powerTrain: str</text><ellipse cx="214" cy="321.1875" fill="none" rx="3" ry="3" style="stroke:#038048;stroke-width:1.0;"/><text fill="#000000" font-family="sans-serif" font-size="14" lengthAdjust="spacing" textLength="86" x="223" y="327.1826">fuelType: str</text><ellipse cx="214" cy="337.4844" fill="none" rx="3" ry="3" style="stroke:#038048;stroke-width:1.0;"/><text fill="#000000" font-family="sans-serif" font-size="14" lengthAdjust="spacing" textLength="156" x="223" y="343.4795">fuelConsumption: float</text><line style="stroke:#181818;stroke-width:0.5;" x1="204" x2="384" y1="350.7813" y2="350.7813"/><ellipse cx="214" cy="361.7813" fill="#84BE84" rx="3" ry="3" style="stroke:#038048;stroke-width:1.0;"/><text fill="#000000" font-family="sans-serif" font-size="14" lengthAdjust="spacing" textLength="98" x="223" y="367.7764">Internals(json)</text></g><!--MD5=[0b4e4b4980470ea387cc45de9bd14b5b]
class Application--><g id="elem_Application"><rect codeLine="53" fill="#F1F1F1" height="129.4844" id="Application" rx="2.5" ry="2.5" style="stroke:#181818;stroke-width:0.5;" width="359" x="404.5" y="15.5"/><ellipse cx="542.25" cy="31.5" fill="#A9DCDF" rx="11" ry="11" style="stroke:#181818;stroke-width:1.0;"/><path d="M542.3594,26.8438 L541.2031,31.9219 L543.5313,31.9219 L542.3594,26.8438 Z M540.875,24.6094 L543.8594,24.6094 L547.2188,37 L544.7656,37 L544,33.9375 L540.7188,33.9375 L539.9688,37 L537.5313,37 L540.875,24.6094 Z " fill="#000000"/><text fill="#000000" font-family="sans-serif" font-size="14" font-style="italic" lengthAdjust="spacing" textLength="75" x="562.75" y="36.3467">Application</text><line style="stroke:#181818;stroke-width:0.5;" x1="405.5" x2="762.5" y1="47.5" y2="47.5"/><ellipse cx="415.5" cy="58.5" fill="none" rx="3" ry="3" style="stroke:#038048;stroke-width:1.0;"/><text fill="#000000" font-family="sans-serif" font-size="14" lengthAdjust="spacing" textLength="78" x="424.5" y="64.4951">window: Tk</text><line style="stroke:#181818;stroke-width:0.5;" x1="405.5" x2="762.5" y1="71.7969" y2="71.7969"/><ellipse cx="415.5" cy="82.7969" fill="#84BE84" rx="3" ry="3" style="stroke:#038048;stroke-width:1.0;"/><text fill="#000000" font-family="sans-serif" font-size="14" lengthAdjust="spacing" textLength="333" x="424.5" y="88.792">Application(title: str, iconPath: str, geometry: str)</text><ellipse cx="415.5" cy="99.0938" fill="#84BE84" rx="3" ry="3" style="stroke:#038048;stroke-width:1.0;"/><text fill="#000000" font-family="sans-serif" font-size="14" lengthAdjust="spacing" textLength="33" x="424.5" y="105.0889">run()</text><ellipse cx="415.5" cy="115.3906" fill="#84BE84" rx="3" ry="3" style="stroke:#038048;stroke-width:1.0;"/><text fill="#000000" font-family="sans-serif" font-size="14" lengthAdjust="spacing" textLength="77" x="424.5" y="121.3857">onstartup()</text><ellipse cx="415.5" cy="131.6875" fill="#84BE84" rx="3" ry="3" style="stroke:#038048;stroke-width:1.0;"/><text fill="#000000" font-family="sans-serif" font-size="14" lengthAdjust="spacing" textLength="79" x="424.5" y="137.6826">onclosure()</text></g><!--MD5=[335f4d9be48430461c68bf6d6fdba145]
class App--><g id="elem_App"><rect codeLine="62" fill="#F1F1F1" height="129.4844" id="App" rx="2.5" ry="2.5" style="stroke:#181818;stroke-width:0.5;" width="170" x="499" y="229.5"/><ellipse cx="566.25" cy="245.5" fill="#ADD1B2" rx="11" ry="11" style="stroke:#181818;stroke-width:1.0;"/><path d="M569.2188,251.1406 Q568.6406,251.4375 568,251.5781 Q567.3594,251.7344 566.6563,251.7344 Q564.1563,251.7344 562.8281,250.0938 Q561.5156,248.4375 561.5156,245.3125 Q561.5156,242.1875 562.8281,240.5313 Q564.1563,238.875 566.6563,238.875 Q567.3594,238.875 568,239.0313 Q568.6563,239.1875 569.2188,239.4844 L569.2188,242.2031 Q568.5938,241.625 568,241.3594 Q567.4063,241.0781 566.7813,241.0781 Q565.4375,241.0781 564.75,242.1563 Q564.0625,243.2188 564.0625,245.3125 Q564.0625,247.4063 564.75,248.4844 Q565.4375,249.5469 566.7813,249.5469 Q567.4063,249.5469 568,249.2813 Q568.5938,249 569.2188,248.4219 L569.2188,251.1406 Z " fill="#000000"/><text fill="#000000" font-family="sans-serif" font-size="14" lengthAdjust="spacing" textLength="27" x="586.75" y="250.3467">App</text><line style="stroke:#181818;stroke-width:0.5;" x1="500" x2="668" y1="261.5" y2="261.5"/><ellipse cx="510" cy="272.5" fill="none" rx="3" ry="3" style="stroke:#038048;stroke-width:1.0;"/><text fill="#000000" font-family="sans-serif" font-size="14" lengthAdjust="spacing" textLength="108" x="519" y="278.4951">cars: List&lt;Car&gt;</text><ellipse cx="510" cy="288.7969" fill="none" rx="3" ry="3" style="stroke:#038048;stroke-width:1.0;"/><text fill="#000000" font-family="sans-serif" font-size="14" lengthAdjust="spacing" textLength="64" x="519" y="294.792">info: Text</text><line style="stroke:#181818;stroke-width:0.5;" x1="500" x2="668" y1="302.0938" y2="302.0938"/><ellipse cx="510" cy="313.0938" fill="#84BE84" rx="3" ry="3" style="stroke:#038048;stroke-width:1.0;"/><text fill="#000000" font-family="sans-serif" font-size="14" lengthAdjust="spacing" textLength="37" x="519" y="319.0889">App()</text><ellipse cx="510" cy="329.3906" fill="#84BE84" rx="3" ry="3" style="stroke:#038048;stroke-width:1.0;"/><text fill="#000000" font-family="sans-serif" font-size="14" lengthAdjust="spacing" textLength="91" x="519" y="335.3857">onselect(evt)</text><ellipse cx="510" cy="345.6875" fill="#84BE84" rx="3" ry="3" style="stroke:#038048;stroke-width:1.0;"/><text fill="#000000" font-family="sans-serif" font-size="14" lengthAdjust="spacing" textLength="144" x="519" y="351.6826">showPriceGraph(car)</text></g><!--MD5=[f3228c0ada97ee6175d805a1b6b02414]
reverse link Car to ImportedCar--><g id="link_Car_ImportedCar"><path d="M176.25,643.92 C158.75,660.34 141.75,676.28 127.26,689.87 " fill="none" id="Car-backto-ImportedCar" style="stroke:#181818;stroke-width:1.0;"/><polygon fill="none" points="171.65,638.64,191.03,630.06,181.23,648.85,171.65,638.64" style="stroke:#181818;stroke-width:1.0;"/></g><!--MD5=[6ce7b2c68ef164980dfa2246f636ebfc]
reverse link Car to UsedCar--><g id="link_Car_UsedCar"><path d="M294,650.21 C294,664.29 294,677.84 294,689.63 " fill="none" id="Car-backto-UsedCar" style="stroke:#181818;stroke-width:1.0;"/><polygon fill="none" points="287,650.06,294,630.06,301,650.06,287,650.06" style="stroke:#181818;stroke-width:1.0;"/></g><!--MD5=[38fb7c403527af1bfd9c857c1507ce69]
reverse link Car to NewCar--><g id="link_Car_NewCar"><path d="M412.34,643.95 C433.72,663.91 454.35,683.16 470.61,698.33 " fill="none" id="Car-backto-NewCar" style="stroke:#181818;stroke-width:1.0;"/><polygon fill="none" points="407.31,648.83,397.46,630.06,416.86,638.59,407.31,648.83" style="stroke:#181818;stroke-width:1.0;"/></g><!--MD5=[1b5d5b7871bf76f88eeac3cf8bb5811e]
reverse link Engine to Internals--><g id="link_Engine_Internals"><path codeLine="15" d="M294,166.35 C294,181.67 294,197.59 294,212.76 " fill="none" id="Engine-backto-Internals" style="stroke:#181818;stroke-width:1.0;"/><polygon fill="#181818" points="294,153.07,290,159.07,294,165.07,298,159.07,294,153.07" style="stroke:#181818;stroke-width:1.0;"/></g><!--MD5=[cbdfd84fc1e8727875ca979ab618d84a]
reverse link Internals to Car--><g id="link_Internals_Car"><path codeLine="16" d="M294,388.3 C294,403.55 294,419.38 294,434.72 " fill="none" id="Internals-backto-Car" style="stroke:#181818;stroke-width:1.0;"/><polygon fill="#181818" points="294,375.07,290,381.07,294,387.07,298,381.07,294,375.07" style="stroke:#181818;stroke-width:1.0;"/></g><!--MD5=[356e9c1a442df0b7daa2eabe011cda3f]
reverse link Application to App--><g id="link_Application_App"><path d="M584,164.74 C584,186.28 584,209.11 584,229.44 " fill="none" id="Application-backto-App" style="stroke:#181818;stroke-width:1.0;"/><polygon fill="none" points="577,164.61,584,144.61,591,164.61,577,164.61" style="stroke:#181818;stroke-width:1.0;"/></g><!--MD5=[cc0f2ece8d77e9462802800cf0e6cbe4]
@startuml
class ImportedCar extends Car {
    +importedOn: int
    +originalCountry: str
}

class UsedCar extends Car {
    +mileage: float
    +modifications: List<str>
}

class NewCar extends Car {
    +concessionaire: str
}

Engine *- - Internals
Internals *- - Car

abstract class Car {
    +Car(json)

    +releaseYear: int
    +model: str
    +brand: str
    +body: str
    +priceHistory: Dictionary<int,float>
    +internals: Internals

    +short_description(): str
    +long_description(): str
}

class Internals {
    +Internals(json)

    +engine: Engine
    +transmission: str
    +4wb: bool
    +powerTrain: str
    +fuelType: str
    +fuelConsumption: float
}

class Engine {
    +Engine(json)

    +size: float
    +cylinders: int
    +inductionType: str
    +horsePower: int
    +torque: int
}

abstract class Application {
    +Application(title: str, iconPath: str, geometry: str)
    +window: Tk

    +run()
    +onstartup()
    +onclosure()
}

class App extends Application {
    +App()

    +cars: List<Car>
    +info: Text

    +onselect(evt)
    +showPriceGraph(car)
}
@enduml

PlantUML version 1.2022.4(Sat Apr 09 13:29:17 UTC 2022)
(GPL source distribution)
Java Runtime: OpenJDK Runtime Environment
JVM: OpenJDK 64-Bit Server VM
Default Encoding: UTF-8
Language: en
Country: US
--></g></svg>