<?xml version="1.0" encoding="UTF-8" standalone="no"?><svg xmlns="http://www.w3.org/2000/svg" xmlns:xlink="http://www.w3.org/1999/xlink" contentStyleType="text/css" height="777px" preserveAspectRatio="none" style="width:736px;height:777px;background:#FFFFFF;" version="1.1" viewBox="0 0 736 777" width="736px" zoomAndPan="magnify"><defs/><g><!--MD5=[c5704167acbf019772631f78b4a3f577]
class ImportedCar--><g id="elem_ImportedCar"><rect codeLine="1" fill="#F1F1F1" height="80.5938" id="ImportedCar" rx="2.5" ry="2.5" style="stroke:#181818;stroke-width:0.5;" width="145" x="7" y="690"/><ellipse cx="34.6" cy="706" fill="#ADD1B2" rx="11" ry="11" style="stroke:#181818;stroke-width:1.0;"/><path d="M37.5688,711.6406 Q36.9906,711.9375 36.35,712.0781 Q35.7094,712.2344 35.0063,712.2344 Q32.5063,712.2344 31.1781,710.5938 Q29.8656,708.9375 29.8656,705.8125 Q29.8656,702.6875 31.1781,701.0313 Q32.5063,699.375 35.0063,699.375 Q35.7094,699.375 36.35,699.5313 Q37.0063,699.6875 37.5688,699.9844 L37.5688,702.7031 Q36.9438,702.125 36.35,701.8594 Q35.7563,701.5781 35.1313,701.5781 Q33.7875,701.5781 33.1,702.6563 Q32.4125,703.7188 32.4125,705.8125 Q32.4125,707.9063 33.1,708.9844 Q33.7875,710.0469 35.1313,710.0469 Q35.7563,710.0469 36.35,709.7813 Q36.9438,709.5 37.5688,708.9219 L37.5688,711.6406 Z " fill="#000000"/><text fill="#000000" font-family="sans-serif" font-size="14" lengthAdjust="spacing" textLength="85" x="51.4" y="710.8467">ImportedCar</text><line style="stroke:#181818;stroke-width:0.5;" x1="8" x2="151" y1="722" y2="722"/><ellipse cx="18" cy="733" fill="none" rx="3" ry="3" style="stroke:#038048;stroke-width:1.0;"/><text fill="#000000" font-family="sans-serif" font-size="14" lengthAdjust="spacing" textLength="108" x="27" y="738.9951">importedOn: int</text><ellipse cx="18" cy="749.2969" fill="none" rx="3" ry="3" style="stroke:#038048;stroke-width:1.0;"/><text fill="#000000" font-family="sans-serif" font-size="14" lengthAdjust="spacing" textLength="119" x="27" y="755.292">originCountry: str</text><line style="stroke:#181818;stroke-width:0.5;" x1="8" x2="151" y1="762.5938" y2="762.5938"/></g><!--MD5=[3f0ef310aaa84a542276992c5216544d]
class Car--><g id="elem_Car"><rect codeLine="18" fill="#F1F1F1" height="194.6719" id="Car" rx="2.5" ry="2.5" style="stroke:#181818;stroke-width:0.5;" width="183" x="168" y="435"/><ellipse cx="243.75" cy="451" fill="#A9DCDF" rx="11" ry="11" style="stroke:#181818;stroke-width:1.0;"/><path d="M243.8594,446.3438 L242.7031,451.4219 L245.0313,451.4219 L243.8594,446.3438 Z M242.375,444.1094 L245.3594,444.1094 L248.7188,456.5 L246.2656,456.5 L245.5,453.4375 L242.2188,453.4375 L241.4688,456.5 L239.0313,456.5 L242.375,444.1094 Z " fill="#000000"/><text fill="#000000" font-family="sans-serif" font-size="14" font-style="italic" lengthAdjust="spacing" textLength="23" x="264.25" y="455.8467">Car</text><line style="stroke:#181818;stroke-width:0.5;" x1="169" x2="350" y1="467" y2="467"/><ellipse cx="179" cy="478" fill="none" rx="3" ry="3" style="stroke:#038048;stroke-width:1.0;"/><text fill="#000000" font-family="sans-serif" font-size="14" lengthAdjust="spacing" textLength="108" x="188" y="483.9951">releaseYear: int</text><ellipse cx="179" cy="494.2969" fill="none" rx="3" ry="3" style="stroke:#038048;stroke-width:1.0;"/><text fill="#000000" font-family="sans-serif" font-size="14" lengthAdjust="spacing" textLength="70" x="188" y="500.292">model: str</text><ellipse cx="179" cy="510.5938" fill="none" rx="3" ry="3" style="stroke:#038048;stroke-width:1.0;"/><text fill="#000000" font-family="sans-serif" font-size="14" lengthAdjust="spacing" textLength="67" x="188" y="516.5889">brand: str</text><ellipse cx="179" cy="526.8906" fill="none" rx="3" ry="3" style="stroke:#038048;stroke-width:1.0;"/><text fill="#000000" font-family="sans-serif" font-size="14" lengthAdjust="spacing" textLength="61" x="188" y="532.8857">body: str</text><ellipse cx="179" cy="543.1875" fill="none" rx="3" ry="3" style="stroke:#038048;stroke-width:1.0;"/><text fill="#000000" font-family="sans-serif" font-size="14" lengthAdjust="spacing" textLength="115" x="188" y="549.1826">priceHistory: dict</text><ellipse cx="179" cy="559.4844" fill="none" rx="3" ry="3" style="stroke:#038048;stroke-width:1.0;"/><text fill="#000000" font-family="sans-serif" font-size="14" lengthAdjust="spacing" textLength="127" x="188" y="565.4795">internals: Internals</text><line style="stroke:#181818;stroke-width:0.5;" x1="169" x2="350" y1="572.7813" y2="572.7813"/><ellipse cx="179" cy="583.7813" fill="#84BE84" rx="3" ry="3" style="stroke:#038048;stroke-width:1.0;"/><text fill="#000000" font-family="sans-serif" font-size="14" lengthAdjust="spacing" textLength="62" x="188" y="589.7764">Car(json)</text><ellipse cx="179" cy="600.0781" fill="#84BE84" rx="3" ry="3" style="stroke:#038048;stroke-width:1.0;"/><text fill="#000000" font-family="sans-serif" font-size="14" lengthAdjust="spacing" textLength="157" x="188" y="606.0732">short_description(): str</text><ellipse cx="179" cy="616.375" fill="#84BE84" rx="3" ry="3" style="stroke:#038048;stroke-width:1.0;"/><text fill="#000000" font-family="sans-serif" font-size="14" lengthAdjust="spacing" textLength="151" x="188" y="622.3701">long_description(): str</text></g><!--MD5=[7a0eed1079a82bed8f497436f55a7c8f]
class UsedCar--><g id="elem_UsedCar"><rect codeLine="6" fill="#F1F1F1" height="80.5938" id="UsedCar" rx="2.5" ry="2.5" style="stroke:#181818;stroke-width:0.5;" width="145" x="187" y="690"/><ellipse cx="226.3" cy="706" fill="#ADD1B2" rx="11" ry="11" style="stroke:#181818;stroke-width:1.0;"/><path d="M229.2688,711.6406 Q228.6906,711.9375 228.05,712.0781 Q227.4094,712.2344 226.7063,712.2344 Q224.2063,712.2344 222.8781,710.5938 Q221.5656,708.9375 221.5656,705.8125 Q221.5656,702.6875 222.8781,701.0313 Q224.2063,699.375 226.7063,699.375 Q227.4094,699.375 228.05,699.5313 Q228.7063,699.6875 229.2688,699.9844 L229.2688,702.7031 Q228.6438,702.125 228.05,701.8594 Q227.4563,701.5781 226.8313,701.5781 Q225.4875,701.5781 224.8,702.6563 Q224.1125,703.7188 224.1125,705.8125 Q224.1125,707.9063 224.8,708.9844 Q225.4875,710.0469 226.8313,710.0469 Q227.4563,710.0469 228.05,709.7813 Q228.6438,709.5 229.2688,708.9219 L229.2688,711.6406 Z " fill="#000000"/><text fill="#000000" font-family="sans-serif" font-size="14" lengthAdjust="spacing" textLength="59" x="245.7" y="710.8467">UsedCar</text><line style="stroke:#181818;stroke-width:0.5;" x1="188" x2="331" y1="722" y2="722"/><ellipse cx="198" cy="733" fill="none" rx="3" ry="3" style="stroke:#038048;stroke-width:1.0;"/><text fill="#000000" font-family="sans-serif" font-size="14" lengthAdjust="spacing" textLength="92" x="207" y="738.9951">mileage: float</text><ellipse cx="198" cy="749.2969" fill="none" rx="3" ry="3" style="stroke:#038048;stroke-width:1.0;"/><text fill="#000000" font-family="sans-serif" font-size="14" lengthAdjust="spacing" textLength="119" x="207" y="755.292">modifications: list</text><line style="stroke:#181818;stroke-width:0.5;" x1="188" x2="331" y1="762.5938" y2="762.5938"/></g><!--MD5=[95fe4de01cf4fc25cdf967517f5c0caa]
class NewCar--><g id="elem_NewCar"><rect codeLine="11" fill="#F1F1F1" height="64.2969" id="NewCar" rx="2.5" ry="2.5" style="stroke:#181818;stroke-width:0.5;" width="158" x="367.5" y="698.5"/><ellipse cx="415.75" cy="714.5" fill="#ADD1B2" rx="11" ry="11" style="stroke:#181818;stroke-width:1.0;"/><path d="M418.7188,720.1406 Q418.1406,720.4375 417.5,720.5781 Q416.8594,720.7344 416.1563,720.7344 Q413.6563,720.7344 412.3281,719.0938 Q411.0156,717.4375 411.0156,714.3125 Q411.0156,711.1875 412.3281,709.5313 Q413.6563,707.875 416.1563,707.875 Q416.8594,707.875 417.5,708.0313 Q418.1563,708.1875 418.7188,708.4844 L418.7188,711.2031 Q418.0938,710.625 417.5,710.3594 Q416.9063,710.0781 416.2813,710.0781 Q414.9375,710.0781 414.25,711.1563 Q413.5625,712.2188 413.5625,714.3125 Q413.5625,716.4063 414.25,717.4844 Q414.9375,718.5469 416.2813,718.5469 Q416.9063,718.5469 417.5,718.2813 Q418.0938,718 418.7188,717.4219 L418.7188,720.1406 Z " fill="#000000"/><text fill="#000000" font-family="sans-serif" font-size="14" lengthAdjust="spacing" textLength="53" x="436.25" y="719.3467">NewCar</text><line style="stroke:#181818;stroke-width:0.5;" x1="368.5" x2="524.5" y1="730.5" y2="730.5"/><ellipse cx="378.5" cy="741.5" fill="none" rx="3" ry="3" style="stroke:#038048;stroke-width:1.0;"/><text fill="#000000" font-family="sans-serif" font-size="14" lengthAdjust="spacing" textLength="132" x="387.5" y="747.4951">concessionaire: str</text><line style="stroke:#181818;stroke-width:0.5;" x1="368.5" x2="524.5" y1="754.7969" y2="754.7969"/></g><!--MD5=[c86ce95fe6226f2d2796c0513d8e83fe]
class Engine--><g id="elem_Engine"><rect codeLine="43" fill="#F1F1F1" height="145.7813" id="Engine" rx="2.5" ry="2.5" style="stroke:#181818;stroke-width:0.5;" width="151" x="184" y="7"/><ellipse cx="231.25" cy="23" fill="#ADD1B2" rx="11" ry="11" style="stroke:#181818;stroke-width:1.0;"/><path d="M234.2188,28.6406 Q233.6406,28.9375 233,29.0781 Q232.3594,29.2344 231.6563,29.2344 Q229.1563,29.2344 227.8281,27.5938 Q226.5156,25.9375 226.5156,22.8125 Q226.5156,19.6875 227.8281,18.0313 Q229.1563,16.375 231.6563,16.375 Q232.3594,16.375 233,16.5313 Q233.6563,16.6875 234.2188,16.9844 L234.2188,19.7031 Q233.5938,19.125 233,18.8594 Q232.4063,18.5781 231.7813,18.5781 Q230.4375,18.5781 229.75,19.6563 Q229.0625,20.7188 229.0625,22.8125 Q229.0625,24.9063 229.75,25.9844 Q230.4375,27.0469 231.7813,27.0469 Q232.4063,27.0469 233,26.7813 Q233.5938,26.5 234.2188,25.9219 L234.2188,28.6406 Z " fill="#000000"/><text fill="#000000" font-family="sans-serif" font-size="14" lengthAdjust="spacing" textLength="48" x="251.75" y="27.8467">Engine</text><line style="stroke:#181818;stroke-width:0.5;" x1="185" x2="334" y1="39" y2="39"/><ellipse cx="195" cy="50" fill="none" rx="3" ry="3" style="stroke:#038048;stroke-width:1.0;"/><text fill="#000000" font-family="sans-serif" font-size="14" lengthAdjust="spacing" textLength="66" x="204" y="55.9951">size: float</text><ellipse cx="195" cy="66.2969" fill="none" rx="3" ry="3" style="stroke:#038048;stroke-width:1.0;"/><text fill="#000000" font-family="sans-serif" font-size="14" lengthAdjust="spacing" textLength="87" x="204" y="72.292">cylinders: int</text><ellipse cx="195" cy="82.5938" fill="none" rx="3" ry="3" style="stroke:#038048;stroke-width:1.0;"/><text fill="#000000" font-family="sans-serif" font-size="14" lengthAdjust="spacing" textLength="125" x="204" y="88.5889">inductionType: str</text><ellipse cx="195" cy="98.8906" fill="none" rx="3" ry="3" style="stroke:#038048;stroke-width:1.0;"/><text fill="#000000" font-family="sans-serif" font-size="14" lengthAdjust="spacing" textLength="109" x="204" y="104.8857">horsePower: int</text><ellipse cx="195" cy="115.1875" fill="none" rx="3" ry="3" style="stroke:#038048;stroke-width:1.0;"/><text fill="#000000" font-family="sans-serif" font-size="14" lengthAdjust="spacing" textLength="72" x="204" y="121.1826">torque: int</text><line style="stroke:#181818;stroke-width:0.5;" x1="185" x2="334" y1="128.4844" y2="128.4844"/><ellipse cx="195" cy="139.4844" fill="#84BE84" rx="3" ry="3" style="stroke:#038048;stroke-width:1.0;"/><text fill="#000000" font-family="sans-serif" font-size="14" lengthAdjust="spacing" textLength="87" x="204" y="145.4795">Engine(json)</text></g><!--MD5=[a5e4776f1672aa0c62a54f0a77939200]
class Internals--><g id="elem_Internals"><rect codeLine="32" fill="#F1F1F1" height="162.0781" id="Internals" rx="2.5" ry="2.5" style="stroke:#181818;stroke-width:0.5;" width="182" x="168.5" y="213"/><ellipse cx="225.75" cy="229" fill="#ADD1B2" rx="11" ry="11" style="stroke:#181818;stroke-width:1.0;"/><path d="M228.7188,234.6406 Q228.1406,234.9375 227.5,235.0781 Q226.8594,235.2344 226.1563,235.2344 Q223.6563,235.2344 222.3281,233.5938 Q221.0156,231.9375 221.0156,228.8125 Q221.0156,225.6875 222.3281,224.0313 Q223.6563,222.375 226.1563,222.375 Q226.8594,222.375 227.5,222.5313 Q228.1563,222.6875 228.7188,222.9844 L228.7188,225.7031 Q228.0938,225.125 227.5,224.8594 Q226.9063,224.5781 226.2813,224.5781 Q224.9375,224.5781 224.25,225.6563 Q223.5625,226.7188 223.5625,228.8125 Q223.5625,230.9063 224.25,231.9844 Q224.9375,233.0469 226.2813,233.0469 Q226.9063,233.0469 227.5,232.7813 Q228.0938,232.5 228.7188,231.9219 L228.7188,234.6406 Z " fill="#000000"/><text fill="#000000" font-family="sans-serif" font-size="14" lengthAdjust="spacing" textLength="59" x="246.25" y="233.8467">Internals</text><line style="stroke:#181818;stroke-width:0.5;" x1="169.5" x2="349.5" y1="245" y2="245"/><ellipse cx="179.5" cy="256" fill="none" rx="3" ry="3" style="stroke:#038048;stroke-width:1.0;"/><text fill="#000000" font-family="sans-serif" font-size="14" lengthAdjust="spacing" textLength="105" x="188.5" y="261.9951">engine: Engine</text><ellipse cx="179.5" cy="272.2969" fill="none" rx="3" ry="3" style="stroke:#038048;stroke-width:1.0;"/><text fill="#000000" font-family="sans-serif" font-size="14" lengthAdjust="spacing" textLength="115" x="188.5" y="278.292">transmission: str</text><ellipse cx="179.5" cy="288.5938" fill="none" rx="3" ry="3" style="stroke:#038048;stroke-width:1.0;"/><text fill="#000000" font-family="sans-serif" font-size="14" lengthAdjust="spacing" textLength="68" x="188.5" y="294.5889">4wb: bool</text><ellipse cx="179.5" cy="304.8906" fill="none" rx="3" ry="3" style="stroke:#038048;stroke-width:1.0;"/><text fill="#000000" font-family="sans-serif" font-size="14" lengthAdjust="spacing" textLength="104" x="188.5" y="310.8857">powerTrain: str</text><ellipse cx="179.5" cy="321.1875" fill="none" rx="3" ry="3" style="stroke:#038048;stroke-width:1.0;"/><text fill="#000000" font-family="sans-serif" font-size="14" lengthAdjust="spacing" textLength="86" x="188.5" y="327.1826">fuelType: str</text><ellipse cx="179.5" cy="337.4844" fill="none" rx="3" ry="3" style="stroke:#038048;stroke-width:1.0;"/><text fill="#000000" font-family="sans-serif" font-size="14" lengthAdjust="spacing" textLength="156" x="188.5" y="343.4795">fuelConsumption: float</text><line style="stroke:#181818;stroke-width:0.5;" x1="169.5" x2="349.5" y1="350.7813" y2="350.7813"/><ellipse cx="179.5" cy="361.7813" fill="#84BE84" rx="3" ry="3" style="stroke:#038048;stroke-width:1.0;"/><text fill="#000000" font-family="sans-serif" font-size="14" lengthAdjust="spacing" textLength="98" x="188.5" y="367.7764">Internals(json)</text></g><!--MD5=[0b4e4b4980470ea387cc45de9bd14b5b]
class Application--><g id="elem_Application"><rect codeLine="53" fill="#F1F1F1" height="129.4844" id="Application" rx="2.5" ry="2.5" style="stroke:#181818;stroke-width:0.5;" width="359" x="370" y="15.5"/><ellipse cx="507.75" cy="31.5" fill="#A9DCDF" rx="11" ry="11" style="stroke:#181818;stroke-width:1.0;"/><path d="M507.8594,26.8438 L506.7031,31.9219 L509.0313,31.9219 L507.8594,26.8438 Z M506.375,24.6094 L509.3594,24.6094 L512.7188,37 L510.2656,37 L509.5,33.9375 L506.2188,33.9375 L505.4688,37 L503.0313,37 L506.375,24.6094 Z " fill="#000000"/><text fill="#000000" font-family="sans-serif" font-size="14" font-style="italic" lengthAdjust="spacing" textLength="75" x="528.25" y="36.3467">Application</text><line style="stroke:#181818;stroke-width:0.5;" x1="371" x2="728" y1="47.5" y2="47.5"/><ellipse cx="381" cy="58.5" fill="none" rx="3" ry="3" style="stroke:#038048;stroke-width:1.0;"/><text fill="#000000" font-family="sans-serif" font-size="14" lengthAdjust="spacing" textLength="78" x="390" y="64.4951">window: Tk</text><line style="stroke:#181818;stroke-width:0.5;" x1="371" x2="728" y1="71.7969" y2="71.7969"/><ellipse cx="381" cy="82.7969" fill="#84BE84" rx="3" ry="3" style="stroke:#038048;stroke-width:1.0;"/><text fill="#000000" font-family="sans-serif" font-size="14" lengthAdjust="spacing" textLength="333" x="390" y="88.792">Application(title: str, iconPath: str, geometry: str)</text><ellipse cx="381" cy="99.0938" fill="#84BE84" rx="3" ry="3" style="stroke:#038048;stroke-width:1.0;"/><text fill="#000000" font-family="sans-serif" font-size="14" lengthAdjust="spacing" textLength="33" x="390" y="105.0889">run()</text><ellipse cx="381" cy="115.3906" fill="#84BE84" rx="3" ry="3" style="stroke:#038048;stroke-width:1.0;"/><text fill="#000000" font-family="sans-serif" font-size="14" lengthAdjust="spacing" textLength="77" x="390" y="121.3857">onstartup()</text><ellipse cx="381" cy="131.6875" fill="#84BE84" rx="3" ry="3" style="stroke:#038048;stroke-width:1.0;"/><text fill="#000000" font-family="sans-serif" font-size="14" lengthAdjust="spacing" textLength="79" x="390" y="137.6826">onclosure()</text></g><!--MD5=[335f4d9be48430461c68bf6d6fdba145]
class App--><g id="elem_App"><rect codeLine="62" fill="#F1F1F1" height="129.4844" id="App" rx="2.5" ry="2.5" style="stroke:#181818;stroke-width:0.5;" width="170" x="464.5" y="229.5"/><ellipse cx="531.75" cy="245.5" fill="#ADD1B2" rx="11" ry="11" style="stroke:#181818;stroke-width:1.0;"/><path d="M534.7188,251.1406 Q534.1406,251.4375 533.5,251.5781 Q532.8594,251.7344 532.1563,251.7344 Q529.6563,251.7344 528.3281,250.0938 Q527.0156,248.4375 527.0156,245.3125 Q527.0156,242.1875 528.3281,240.5313 Q529.6563,238.875 532.1563,238.875 Q532.8594,238.875 533.5,239.0313 Q534.1563,239.1875 534.7188,239.4844 L534.7188,242.2031 Q534.0938,241.625 533.5,241.3594 Q532.9063,241.0781 532.2813,241.0781 Q530.9375,241.0781 530.25,242.1563 Q529.5625,243.2188 529.5625,245.3125 Q529.5625,247.4063 530.25,248.4844 Q530.9375,249.5469 532.2813,249.5469 Q532.9063,249.5469 533.5,249.2813 Q534.0938,249 534.7188,248.4219 L534.7188,251.1406 Z " fill="#000000"/><text fill="#000000" font-family="sans-serif" font-size="14" lengthAdjust="spacing" textLength="27" x="552.25" y="250.3467">App</text><line style="stroke:#181818;stroke-width:0.5;" x1="465.5" x2="633.5" y1="261.5" y2="261.5"/><ellipse cx="475.5" cy="272.5" fill="none" rx="3" ry="3" style="stroke:#038048;stroke-width:1.0;"/><text fill="#000000" font-family="sans-serif" font-size="14" lengthAdjust="spacing" textLength="57" x="484.5" y="278.4951">cars: list</text><ellipse cx="475.5" cy="288.7969" fill="none" rx="3" ry="3" style="stroke:#038048;stroke-width:1.0;"/><text fill="#000000" font-family="sans-serif" font-size="14" lengthAdjust="spacing" textLength="64" x="484.5" y="294.792">info: Text</text><line style="stroke:#181818;stroke-width:0.5;" x1="465.5" x2="633.5" y1="302.0938" y2="302.0938"/><ellipse cx="475.5" cy="313.0938" fill="#84BE84" rx="3" ry="3" style="stroke:#038048;stroke-width:1.0;"/><text fill="#000000" font-family="sans-serif" font-size="14" lengthAdjust="spacing" textLength="37" x="484.5" y="319.0889">App()</text><ellipse cx="475.5" cy="329.3906" fill="#84BE84" rx="3" ry="3" style="stroke:#038048;stroke-width:1.0;"/><text fill="#000000" font-family="sans-serif" font-size="14" lengthAdjust="spacing" textLength="91" x="484.5" y="335.3857">onselect(evt)</text><ellipse cx="475.5" cy="345.6875" fill="#84BE84" rx="3" ry="3" style="stroke:#038048;stroke-width:1.0;"/><text fill="#000000" font-family="sans-serif" font-size="14" lengthAdjust="spacing" textLength="144" x="484.5" y="351.6826">showPriceGraph(car)</text></g><!--MD5=[f3228c0ada97ee6175d805a1b6b02414]
reverse link Car to ImportedCar--><g id="link_Car_ImportedCar"><path d="M157.25,644.84 C142.56,660.84 128.31,676.35 116.11,689.63 " fill="none" id="Car-backto-ImportedCar" style="stroke:#181818;stroke-width:1.0;"/><polygon fill="none" points="152.13,640.06,170.82,630.06,162.45,649.53,152.13,640.06" style="stroke:#181818;stroke-width:1.0;"/></g><!--MD5=[6ce7b2c68ef164980dfa2246f636ebfc]
reverse link Car to UsedCar--><g id="link_Car_UsedCar"><path d="M259.5,650.21 C259.5,664.29 259.5,677.84 259.5,689.63 " fill="none" id="Car-backto-UsedCar" style="stroke:#181818;stroke-width:1.0;"/><polygon fill="none" points="252.5,650.06,259.5,630.06,266.5,650.06,252.5,650.06" style="stroke:#181818;stroke-width:1.0;"/></g><!--MD5=[38fb7c403527af1bfd9c857c1507ce69]
reverse link Car to NewCar--><g id="link_Car_NewCar"><path d="M364.94,644.01 C383.86,663.85 402.13,682.99 416.56,698.12 " fill="none" id="Car-backto-NewCar" style="stroke:#181818;stroke-width:1.0;"/><polygon fill="none" points="359.82,648.79,351.08,629.49,369.95,639.13,359.82,648.79" style="stroke:#181818;stroke-width:1.0;"/></g><!--MD5=[1b5d5b7871bf76f88eeac3cf8bb5811e]
reverse link Engine to Internals--><g id="link_Engine_Internals"><path codeLine="15" d="M259.5,166.35 C259.5,181.67 259.5,197.59 259.5,212.76 " fill="none" id="Engine-backto-Internals" style="stroke:#181818;stroke-width:1.0;"/><polygon fill="#181818" points="259.5,153.07,255.5,159.07,259.5,165.07,263.5,159.07,259.5,153.07" style="stroke:#181818;stroke-width:1.0;"/></g><!--MD5=[cbdfd84fc1e8727875ca979ab618d84a]
reverse link Internals to Car--><g id="link_Internals_Car"><path codeLine="16" d="M259.5,388.3 C259.5,403.55 259.5,419.38 259.5,434.72 " fill="none" id="Internals-backto-Car" style="stroke:#181818;stroke-width:1.0;"/><polygon fill="#181818" points="259.5,375.07,255.5,381.07,259.5,387.07,263.5,381.07,259.5,375.07" style="stroke:#181818;stroke-width:1.0;"/></g><!--MD5=[356e9c1a442df0b7daa2eabe011cda3f]
reverse link Application to App--><g id="link_Application_App"><path d="M549.5,164.74 C549.5,186.28 549.5,209.11 549.5,229.44 " fill="none" id="Application-backto-App" style="stroke:#181818;stroke-width:1.0;"/><polygon fill="none" points="542.5,164.61,549.5,144.61,556.5,164.61,542.5,164.61" style="stroke:#181818;stroke-width:1.0;"/></g><!--MD5=[6636e65f2b586a37fd05072644a8a830]
@startuml
class ImportedCar extends Car {
    +importedOn: int
    +originCountry: str
}

class UsedCar extends Car {
    +mileage: float
    +modifications: list
}

class NewCar extends Car {
    +concessionaire: str
}

Engine *- - Internals
Internals *- - Car

abstract class Car {
    +Car(json)

    +releaseYear: int
    +model: str
    +brand: str
    +body: str
    +priceHistory: dict
    +internals: Internals

    +short_description(): str
    +long_description(): str
}

class Internals {
    +Internals(json)

    +engine: Engine
    +transmission: str
    +4wb: bool
    +powerTrain: str
    +fuelType: str
    +fuelConsumption: float
}

class Engine {
    +Engine(json)

    +size: float
    +cylinders: int
    +inductionType: str
    +horsePower: int
    +torque: int
}

abstract class Application {
    +Application(title: str, iconPath: str, geometry: str)
    +window: Tk

    +run()
    +onstartup()
    +onclosure()
}

class App extends Application {
    +App()

    +cars: list
    +info: Text

    +onselect(evt)
    +showPriceGraph(car)
}
@enduml

PlantUML version 1.2022.4(Sat Apr 09 13:29:17 UTC 2022)
(GPL source distribution)
Java Runtime: OpenJDK Runtime Environment
JVM: OpenJDK 64-Bit Server VM
Default Encoding: UTF-8
Language: en
Country: US
--></g></svg>